<svg width="300" height="300" viewBox="0 0 300 300" fill="none" xmlns="http://www.w3.org/2000/svg">
<path d="M90 45C78.0653 45 66.6193 49.7411 58.1802 58.1802C49.7411 66.6193 45 78.0653 45 90V210C45 221.935 49.7411 233.381 58.1802 241.82C66.6193 250.259 78.0653 255 90 255H135.765C135.254 252.533 134.998 250.02 135 247.5V186.855L114.06 207.795C112.696 209.162 110.856 209.95 108.926 209.994C106.995 210.039 105.121 209.337 103.695 208.035L92.445 197.76C91.0517 196.401 90.2413 194.553 90.1851 192.608C90.129 190.662 90.8314 188.771 92.144 187.333C93.4566 185.896 95.2766 185.026 97.2193 184.905C99.1621 184.785 101.075 185.425 102.555 186.69L108.51 192.135L129.69 170.94C130.387 170.243 131.215 169.69 132.126 169.314C133.037 168.938 134.014 168.747 135 168.75V157.5C135 139.23 148.155 125.835 162.48 117.87C177.33 109.62 196.8 105 217.5 105C230.805 105 243.6 106.92 255 110.475V90C255 78.0653 250.259 66.6193 241.82 58.1802C233.381 49.7411 221.935 45 210 45H90ZM255 126.315C244.275 122.325 231.375 120 217.5 120C180.225 120 150 136.8 150 157.5C150 178.2 180.225 195 217.5 195C254.775 195 285 178.2 285 157.5C285 144.495 273.09 133.05 255 126.315ZM140.31 95.94C141.008 96.6367 141.563 97.4643 141.941 98.3755C142.319 99.2867 142.513 100.263 142.513 101.25C142.513 102.237 142.319 103.213 141.941 104.125C141.563 105.036 141.008 105.863 140.31 106.56L114.06 132.81C112.694 134.175 110.853 134.96 108.923 135.002C106.992 135.044 105.119 134.339 103.695 133.035L92.445 122.76C91.6805 122.107 91.0553 121.306 90.6064 120.406C90.1576 119.506 89.8943 118.525 89.8323 117.521C89.7702 116.518 89.9107 115.512 90.2453 114.563C90.5799 113.615 91.1018 112.744 91.78 112.001C92.4582 111.258 93.2788 110.66 94.193 110.241C95.1072 109.822 96.0963 109.591 97.1016 109.562C98.1068 109.533 99.1076 109.706 100.044 110.072C100.981 110.438 101.835 110.988 102.555 111.69L108.51 117.12L129.69 95.94C130.387 95.2416 131.214 94.6874 132.126 94.3093C133.037 93.9312 134.013 93.7366 135 93.7366C135.987 93.7366 136.963 93.9312 137.874 94.3093C138.786 94.6874 139.613 95.2416 140.31 95.94ZM217.5 210C238.2 210 257.67 205.365 272.52 197.13C276.915 194.685 281.19 191.73 285.015 188.28L285 247.5C285 268.215 254.775 285 217.5 285C180.225 285 150 268.2 150 247.5V188.325C153.825 191.775 158.1 194.7 162.48 197.145C177.33 205.395 196.8 210.015 217.5 210.015V210Z" fill="#2168EB"/>
</svg>
